<svg xmlns="http://www.w3.org/2000/svg" width="32" height="32" viewBox="0 0 1500 1500"><path fill="#f7931e" d="M269 430.3a274 274 0 0 1-5-120.8l.6-2.7L159 339q.4 1.5.4 3Zm0 0"/><path fill="#f7931e" d="M752.4 30.2a714 714 0 0 0-202.8 29.2 10 10 0 0 1-8-1.1 10 10 0 0 1-7.8 2.4L262.2 26.9c3 59.5 50.3 97.8 84.7 118a10 10 0 0 1 7.1 4 228 228 0 0 0 30.4 14.1 10 10 0 0 1 5 7 10 10 0 0 1-1.1 6.7 10 10 0 0 1-3.7 3.7 10 10 0 0 1-5 1.4q-1.8 0-3.4-.6-14.7-5.4-28.6-12.8c-31.2 38.2-53.7 89.2-63.8 144.7-21.7 119.8 47 212.1 97.2 279.5l8.1 11c33 44.5 48.5 79.7 55.7 103.3a46.6 46.6 0 0 1 58.8-2.8 48 48 0 0 1 16.2 22.2 47 47 0 0 1-2 34.9c57.7.7 102-15.2 145.2-52 52-44 74.6-88.9 86.6-171.6 4.4-30.3 1.3-69.9-1.9-111.7-3.4-44.4-7-90.4-2-130.5a10 10 0 0 1 2.5-5.3 10 10 0 0 1 10.7-3 10 10 0 0 1 6.5 7 10 10 0 0 1 .3 3.8c-4.8 38-1.3 83 2 126.5 3.3 43 6.4 83.5 1.7 116-12.7 88.3-37.2 136.5-93.4 184.2a223 223 0 0 1-154 56.7q-10.5 0-21.7-.7l-4.4 2.4c67.6 31.3 135.7 65.4 192.3 115.1 35.3 31 65.6 67.6 94.9 102.9 26 31.6 53.3 64.3 83.6 92.4 58.2 54 149.2 100 230 67.2a10 10 0 0 1 9.4 1 10 10 0 0 1 4.2 10.3 10 10 0 0 1-1.5 3.6 10 10 0 0 1-4.5 3.7 170 170 0 0 1-64.8 12.4c-69.6 0-138.6-39.2-186.4-83.5-31.2-29-58.7-62.2-85.3-94.3C739 979 709.3 943 675 913.2c-62.5-55-140.8-90.8-216.5-125.4L435.1 777c-84.2-38.8-171.6-82.9-234.9-156-47.6-55.1-82.3-139.3-76.3-217.1a712 712 0 0 0-86.6 341.2c0 394.2 320.9 714.8 715 714.8s715.2-320.7 715.2-715c0-394-320.8-714.7-715.1-714.7m0 0"/><path fill="#fbb03b" d="M480.1 861.8c67-1.9 129.2 36.4 177.5 83s87.3 102 136.5 147.7c49.1 45.6 113 81.9 180 76.3-97.2-39.7-169.9-126-237.5-206.3-67.6-80.2-154-159.2-258.8-161.3 2.4 24.2-.1 36.4 2.3 60.6m0 0"/><path fill="#fff" d="M257.4 1042.6c47.6 35 101.8 47.6 161 46.6-37.7-43.8-76-107.4-83.3-164.6 75.2 6.3 151.7 36.7 208.3 86.4-2.3-43-14-91.4-45.6-120.7 23.1 3.5 50.3 1.7 73.4 5.2a152 152 0 0 0-45.4-76.2c-22.4-10.9-45-21.1-67.4-31.5L435 777c-84.2-38.8-171.6-82.9-234.9-156-47.4-55.1-82.1-139.3-76.1-217.1a706 706 0 0 0-59.3 145 713 713 0 0 0 15.8 441 729 729 0 0 0 46.5 101.8l.3-.7q2.8 6 6 11.8 8.3 14.4 17.3 28.2a291 291 0 0 0 194.8 121c-49.7-54.8-82.8-135.7-88-209.4m0 0"/><path fill="#f15a24" d="M752.4 1459.9c394.3 0 715.1-320.7 715.1-715A710 710 0 0 0 1360 368.7c.3.8 191.4 496.6-194.4 852.2S55.6 1266.7 37.3 745c0 394.2 320.9 714.8 715 714.8m0 0"/><path fill="#e2d5c7" d="m37.8 773 .8 15.2q0 3.5.4 6.8l1.3 16.3.4 4.9q1 10.6 2.5 21.1l.3 2.7a765 765 0 0 0 6.6 39.9l1 4.7q4.1 21 9.6 41.8l.4 1.8 5.3 18.8 1 3 6 19q0 .6.3 1.1 7 21 15.2 41.4l.1.5q4 9.8 8.4 19.7l.3.8a706 706 0 0 0 29.4 59q0-.4.3-.8a190 190 0 0 0 14.5 26l.1.3 8.6 13.7a291 291 0 0 0 194.9 121l-4.3-4.9c-171.6-111.3-296.6-289-303.9-501.7q-.1 10.8.4 21.4zm0 0"/><path fill="#f15a24" d="m745 293.6-26.6 178c-9.6 63.6-19.7 128.8-52.2 184.3-32.4 55.4-93 99.4-156.9 93 48.5 29 103.3 18.4 148.3-15.6s72.2-87.3 87-141.8c26.3-98 15-197.5.3-297.9m0 0"/><path fill="#f15a24" d="M774.4 506.3a78 78 0 0 0 48.4 41.8c-19.4 83.3-40 168.5-59.5 251.9-30.4-23.6-65-48.1-95.4-71.7 60.1-56.7 104.5-139.5 106.5-222m232.5 2.7a222 222 0 0 0-88 83 220 220 0 0 0-26.3 68.3c-4.7 24.2-5.3 49-10.5 73.1-5.2 24.2-15.9 48.4-36 62.8-20 14.3-50.8 15.3-67.4-3-.8 27.3 1 52.7 24.4 66.9 24.2 14.6 56.9 6 78-12.6s33.5-45.1 45.2-70.8c-20.8-99.8-.3-205.4 80.6-267.7m0 0"/><path fill="#f15a24" d="M947.6 622a356 356 0 0 0 113.5 71.5c-41-8.4-89.6-4.6-127.7 12.7 6-24.7 8.1-59.5 14.2-84.1M720 780.3c-25.2-3-41 30.5-32.7 54.4 8.5 24 30.6 39.6 49.4 56.5 37.1 33.3 64.8 75.8 92.5 117.4 27.6 41.6 56.3 83.4 95 115.1 38.6 31.7 89 52.4 138.4 44.6-52.4 30.7-122.9 11.6-170.2-26.5-47.3-38-79.3-91.4-117-138.8a674 674 0 0 0-214-177.2 679 679 0 0 0-85.2-37.6 55 55 0 0 1 37.6-22.5c15.8-1.9 32-.4 48-1.3a169 169 0 0 0 93.6-34.6l1.2 10c18.7 15 44.5 25.2 63.3 40.5m0 0"/><path fill="#fbb03b" d="M928.4 769.3a184 184 0 0 1 115.9-39.2q9 0 17.8 1c60.5 7.1 112.7 43.7 162.2 79.1a178 178 0 0 0-64-79.4 177 177 0 0 0-54.2-25.2 184 184 0 0 0-74.7-4.9c-43.4-13.8-87.8.6-118.3 34.4-9.5 10.7 4.8 24.5 15.3 34.2M439.5 712c5.6-50.3-14-100-37.8-144.7-23.9-44.7-52.6-87.5-67.7-135.8a269 269 0 0 1 .2-157.2 264 264 0 0 1 44-84.6c3-3.6 2.5-11.5 3.3-16.2-12.4-2.5-29.2-6.6-41.6-9-56.8 37.3-83.6 120.4-76.9 188s39.1 129.7 75 187.3c36 57.7 75.7 109.5 101.5 172.3m0 0"/><path fill="#f15a24" d="M390.7 159.4a42 42 0 0 0 37-22 41 41 0 0 0-2.5-42.8c-10-14.7-28.2-21.2-45.1-26.8L260.6 28.1c9.8 65.5 63.9 130.5 130 131.3m0 0"/><path fill="#fff" d="M401.2 625.5A144 144 0 0 1 560.6 598c51.9 24.7 85 84.1 78.7 141.3C594 774.5 531.9 784 480 759.5c-26.4-41-52.2-92.9-78.8-134m0 0"/><path fill="#fbb03b" d="m178 365.4 90.4-36.3c.8-13-1.3-22.3-.5-35.4a218 218 0 0 0-125.7 49.8l3.3-1.3c12.2 8 20.3 15.3 32.5 23.2m0 0"/><path fill="#701c05" d="M752.4 6.1a740 740 0 0 0-209.6 30.2l-3 1.2-3-.7L252.4 1.4A14 14 0 0 0 242 5.7a14 14 0 0 0-4 9.2c-3 72.2 46 118.5 86.1 144.3a340 340 0 0 0-57.9 122l-134.5 41a14 14 0 0 0-4.8 24.2l2.2 1.8-2 2.4a736 736 0 0 0-114 394.5c0 407.5 331.6 739 739.3 739s739.2-331.5 739.2-739S1160 6.1 752.4 6.1M154.6 368.8l122.6 99.1c21.7 54.7 56 100.7 84.5 139q4.2 5.5 8 10.9c57 76.8 57.3 122 57.3 123q0 3.6 1.5 6.7c-76.4-36-154.1-77.3-210.2-142.3-50.4-58.5-86.8-157.3-63.7-236.4m105-56.3a276 276 0 0 0 2.6 107.2l-97-78.4ZM752.3 1456c-392.2 0-711.2-318.9-711.2-710.9A707 707 0 0 1 119 421.4c0 73.7 33.3 150.6 77.8 202.1 63.8 73.9 151.7 118 236.1 157.1l23.6 10.9C532.1 826 610 861.7 672.2 916.2c33.8 29.7 63.5 65.5 92.2 100.1 26.6 32.2 54.2 65.5 85.6 94.7 48.5 45 118.3 84.7 189.2 84.7a174 174 0 0 0 68.7-14 14 14 0 0 0-13-24.7c-79 32-168.4-13.3-225.7-66.6-30.2-27.9-57.1-60.5-83.2-92-29.4-35.5-59.7-72.2-95.3-103.4a605 605 0 0 0-113.5-76.4 61 61 0 0 1 67.2-12.5 14 14 0 0 0 8.1-.8 14 14 0 0 0 8.8-12.9 14 14 0 0 0-8.6-13A88 88 0 0 0 552 805.3q-21-10.5-42-20.3 5.7.3 11.3.2A228 228 0 0 0 656.1 745q1.2 2 3 3.3l97.7 73.6.7.5a81 81 0 0 0 27.5 50.4 72 72 0 0 0 44.9 15 88 88 0 0 0 55.5-20q34.6-28.2 45.5-86a450 450 0 0 0 5.7-46.8 13 13 0 0 0 3.3-1.7c49.7-34.8 122.5-38.3 181.2-8.6a202 202 0 0 1 91.5 93.8 14 14 0 0 0 13.4 8 14 14 0 0 0 9.7-4.7 14 14 0 0 0 3.6-10.1 14 14 0 0 0-1.3-5.3 232 232 0 0 0-104.4-106.8c-62.6-31.6-136.6-31-193.8.7a327 327 0 0 1 5.4-31 298 298 0 0 1 78-142.2 14 14 0 0 0-4.6-22.9 14 14 0 0 0-15.3 3.1 326 326 0 0 0-90.3 181c-2 13.3-3 26.8-4.1 39.8q-1.6 24.4-5.7 48.4c-4 21.2-13 49.7-33.8 67.8a41 41 0 0 1 .3-45.3 14 14 0 1 0-22.8-16.4 66 66 0 0 0-10.2 22.5 70 70 0 0 0 3.3 43.7 69 69 0 0 0 4.5 8.9q-4.2 1.1-8.5 1.6a14 14 0 0 0-4-8.2 57 57 0 0 1-11.1-62.8 59 59 0 0 1 6-10.9 14 14 0 0 0-1-13.3 14 14 0 0 0-6.3-5.3 14 14 0 0 0-15.4 2.8l-1.8 2.1a85 85 0 0 0-9.8 75.5 66 66 0 0 1-8.6-31c-.8-18.2 3.8-37 8.3-55.2l74.9-307.2a14 14 0 0 0-.6-9.8 14 14 0 0 0-15.2-8.2 13 13 0 0 0-4 1.4 14 14 0 0 0-7.4 10l-75 307.1a332 332 0 0 0-8.1 40.6l-78.4-59.1h.1c56.4-47.8 82.1-98.4 94.9-186.7 4.7-33 1.6-73.7-1.7-117-3.4-43-6.8-88-2-125.6a14 14 0 0 0-7.2-13.8 14 14 0 0 0-10.5-1.3 14 14 0 0 0-9.6 9l-.6 2.7c-5.1 40.4-1.6 86.6 1.9 131.3 3.2 41.6 6.2 80.9 1.9 110.8-13.4 92.5-41.4 132-85.2 169.2a202 202 0 0 1-102.2 48.4 74 74 0 0 0 33.7-44.3 76 76 0 0 0-2.8-49.2 14 14 0 0 0-8.7-6 14 14 0 0 0-17 15.4q0 1.3.5 2.6a49 49 0 0 1-3.4 40.3 51 51 0 0 1-12.9 14.4 49 49 0 0 1-25.7 9.5 46.5 46.5 0 0 0-51.3-42.1 46 46 0 0 0-22.7 9c-7.5-24.2-23.2-59.2-55.7-103.1l-8.1-11c-49.8-66.7-118-158.2-96.5-276.3a320 320 0 0 1 61-140.4q12.7 6.6 26.1 11.6a14 14 0 0 0 13.6-2.6 14 14 0 0 0 5-10.8 14 14 0 0 0-9.3-13q-14.3-5.6-27.7-13l-1.2-1.3q-3-2.6-6.8-3.2c-32.6-19.5-76.7-55.2-81.9-109.7l266.8 33.2A14 14 0 0 0 542 63a14 14 0 0 0 8.7.3 712 712 0 0 1 201.7-29c392 0 711.2 318.9 711.2 711S1144.5 1456 752.4 1456m0 0"/><path fill="#701c05" d="M499.2 401.1a70 70 0 0 0-56.2 3.6 73 73 0 0 0-27 24.3 72 72 0 0 0-10.9 50.2 70 70 0 0 0 6.3 20 14 14 0 0 0 12.7 7.9 14 14 0 0 0 10.4-4.8 14 14 0 0 0 3.5-10.1 14 14 0 0 0-1.4-5.3 43 43 0 0 1 6.6-47.5 43 43 0 0 1 46.4-11.8 14 14 0 0 0 13.1-2 14 14 0 0 0-3.7-24.5Zm0 0"/></svg>