<svg xmlns="http://www.w3.org/2000/svg" xmlns:xlink="http://www.w3.org/1999/xlink" width="2000" zoomAndPan="magnify" viewBox="0 0 1500 1499.999933" height="2000" preserveAspectRatio="xMidYMid meet" version="1.0"><rect x="-150" width="1800" fill="#ffffff" y="-149.999993" height="1799.99992" fill-opacity="1"/><rect x="-150" width="1800" fill="#ffffff" y="-149.999993" height="1799.99992" fill-opacity="1"/><path fill="#f7931e" d="M 414.992188 527.425781 C 411.296875 513.703125 409.160156 499.742188 408.582031 485.542969 C 408.007812 471.34375 409.003906 457.257812 411.578125 443.28125 L 411.957031 441.40625 L 338.449219 463.789062 C 338.679688 464.472656 338.789062 465.175781 338.789062 465.898438 Z M 414.992188 527.425781 " fill-opacity="1" fill-rule="nonzero"/><path fill="#f7931e" d="M 751.660156 248.707031 C 727.753906 248.6875 703.972656 250.382812 680.308594 253.785156 C 656.648438 257.1875 633.355469 262.269531 610.425781 269.027344 C 609.484375 269.300781 608.53125 269.371094 607.5625 269.242188 C 606.59375 269.113281 605.695312 268.796875 604.859375 268.289062 C 604.121094 268.945312 603.28125 269.417969 602.339844 269.707031 C 601.398438 269.996094 600.441406 270.082031 599.460938 269.957031 C 575.917969 267.066406 444.0625 250.625 410.269531 246.410156 C 412.378906 287.851562 445.324219 314.515625 469.292969 328.617188 C 470.792969 328.761719 472.105469 329.328125 473.234375 330.324219 C 473.605469 330.644531 473.933594 331.003906 474.226562 331.398438 C 480.699219 334.976562 487.386719 338.089844 494.292969 340.734375 C 494.683594 340.867188 495.054688 341.035156 495.414062 341.234375 C 495.773438 341.433594 496.109375 341.664062 496.429688 341.921875 C 496.746094 342.179688 497.039062 342.464844 497.308594 342.777344 C 497.574219 343.085938 497.816406 343.417969 498.023438 343.769531 C 498.234375 344.125 498.410156 344.492188 498.554688 344.875 C 498.699219 345.257812 498.808594 345.652344 498.882812 346.054688 C 498.960938 346.460938 499 346.867188 499.003906 347.277344 C 499.003906 347.6875 498.972656 348.09375 498.90625 348.496094 C 498.835938 348.902344 498.734375 349.296875 498.59375 349.683594 C 498.457031 350.070312 498.285156 350.441406 498.082031 350.796875 C 497.878906 351.152344 497.644531 351.488281 497.382812 351.804688 C 497.121094 352.117188 496.832031 352.40625 496.519531 352.671875 C 496.203125 352.933594 495.871094 353.171875 495.515625 353.375 C 495.160156 353.582031 494.789062 353.753906 494.402344 353.890625 C 494.015625 354.03125 493.621094 354.136719 493.21875 354.207031 C 492.8125 354.277344 492.40625 354.3125 491.996094 354.308594 C 491.210938 354.308594 490.445312 354.179688 489.699219 353.929688 C 482.859375 351.40625 476.21875 348.433594 469.777344 345.015625 C 448.066406 371.59375 432.339844 407.109375 425.34375 445.808594 C 410.183594 529.257812 458.078125 593.546875 493.050781 640.488281 L 498.699219 648.097656 C 521.699219 679.164062 532.429688 703.660156 537.464844 720.140625 C 538.152344 719.519531 538.863281 718.929688 539.597656 718.367188 C 540.335938 717.808594 541.09375 717.277344 541.875 716.785156 C 542.65625 716.289062 543.457031 715.828125 544.28125 715.402344 C 545.101562 714.976562 545.941406 714.585938 546.792969 714.230469 C 547.648438 713.875 548.519531 713.558594 549.402344 713.28125 C 550.28125 713 551.175781 712.757812 552.078125 712.554688 C 552.980469 712.355469 553.890625 712.191406 554.808594 712.066406 C 555.726562 711.941406 556.648438 711.855469 557.570312 711.8125 C 558.496094 711.765625 559.421875 711.761719 560.34375 711.796875 C 561.269531 711.832031 562.191406 711.90625 563.109375 712.019531 C 564.027344 712.132812 564.941406 712.285156 565.84375 712.480469 C 566.75 712.671875 567.644531 712.902344 568.53125 713.171875 C 569.417969 713.441406 570.289062 713.746094 571.148438 714.09375 C 572.007812 714.4375 572.847656 714.816406 573.675781 715.234375 C 574.5 715.652344 575.308594 716.101562 576.09375 716.589844 C 576.882812 717.078125 577.648438 717.59375 578.390625 718.148438 C 579.132812 718.699219 579.851562 719.285156 580.542969 719.898438 C 581.234375 720.511719 581.898438 721.15625 582.535156 721.824219 C 583.171875 722.496094 583.78125 723.195312 584.359375 723.917969 C 584.933594 724.640625 585.480469 725.386719 585.992188 726.160156 C 586.503906 726.929688 586.984375 727.71875 587.429688 728.53125 C 587.871094 729.34375 588.28125 730.171875 588.65625 731.019531 C 589.027344 731.867188 589.363281 732.726562 589.664062 733.605469 C 589.960938 734.480469 590.222656 735.367188 590.445312 736.265625 C 590.667969 737.164062 590.851562 738.070312 590.996094 738.984375 C 591.140625 739.898438 591.246094 740.816406 591.3125 741.738281 C 591.378906 742.660156 591.402344 743.585938 591.390625 744.511719 C 591.375 745.4375 591.320312 746.359375 591.226562 747.28125 C 591.132812 748.199219 591 749.117188 590.828125 750.023438 C 590.65625 750.933594 590.445312 751.835938 590.195312 752.726562 C 589.945312 753.617188 589.660156 754.496094 589.332031 755.363281 C 589.007812 756.226562 588.648438 757.078125 588.246094 757.914062 C 628.46875 758.441406 659.289062 747.375 689.433594 721.785156 C 725.605469 691.117188 741.394531 659.816406 749.71875 602.167969 C 752.777344 581.089844 750.648438 553.519531 748.414062 524.390625 C 746.03125 493.40625 743.566406 461.367188 747.085938 433.457031 C 747.144531 433.003906 747.242188 432.558594 747.390625 432.125 C 747.535156 431.691406 747.71875 431.273438 747.949219 430.875 C 748.175781 430.476562 748.4375 430.105469 748.738281 429.757812 C 749.039062 429.414062 749.371094 429.097656 749.730469 428.816406 C 750.09375 428.539062 750.480469 428.292969 750.890625 428.089844 C 751.300781 427.886719 751.726562 427.722656 752.167969 427.601562 C 752.609375 427.480469 753.058594 427.402344 753.515625 427.371094 C 753.972656 427.339844 754.429688 427.351562 754.886719 427.410156 C 755.339844 427.464844 755.785156 427.566406 756.21875 427.710938 C 756.652344 427.859375 757.070312 428.042969 757.46875 428.269531 C 757.867188 428.496094 758.238281 428.761719 758.585938 429.0625 C 758.929688 429.363281 759.246094 429.691406 759.523438 430.054688 C 759.804688 430.417969 760.050781 430.804688 760.253906 431.214844 C 760.457031 431.625 760.621094 432.050781 760.742188 432.492188 C 760.863281 432.933594 760.941406 433.382812 760.972656 433.839844 C 761.003906 434.296875 760.992188 434.753906 760.933594 435.207031 C 757.625 461.703125 760.027344 493.023438 762.347656 523.3125 C 764.644531 553.246094 766.835938 581.488281 763.550781 604.167969 C 754.652344 665.675781 737.621094 699.253906 698.476562 732.453125 C 666.265625 759.746094 633.507812 771.953125 591.242188 771.953125 C 586.324219 771.953125 581.269531 771.789062 576.085938 771.464844 C 575.101562 772.074219 574.089844 772.628906 573.050781 773.132812 C 620.164062 794.96875 667.53125 818.722656 706.96875 853.335938 C 731.589844 874.917969 752.671875 900.378906 773.054688 925 C 791.226562 947.003906 810.199219 969.769531 831.277344 989.351562 C 871.835938 1026.976562 935.203125 1059.035156 991.488281 1036.164062 C 991.910156 1035.992188 992.347656 1035.863281 992.800781 1035.777344 C 993.25 1035.6875 993.703125 1035.648438 994.164062 1035.648438 C 994.621094 1035.652344 995.078125 1035.699219 995.527344 1035.792969 C 995.976562 1035.882812 996.410156 1036.019531 996.835938 1036.199219 C 997.257812 1036.375 997.660156 1036.59375 998.039062 1036.851562 C 998.417969 1037.109375 998.769531 1037.398438 999.09375 1037.726562 C 999.414062 1038.050781 999.703125 1038.40625 999.953125 1038.789062 C 1000.207031 1039.171875 1000.421875 1039.578125 1000.59375 1040 C 1000.765625 1040.425781 1000.894531 1040.863281 1000.984375 1041.316406 C 1001.070312 1041.765625 1001.113281 1042.21875 1001.109375 1042.679688 C 1001.105469 1043.136719 1001.058594 1043.589844 1000.964844 1044.039062 C 1000.875 1044.492188 1000.738281 1044.925781 1000.5625 1045.347656 C 1000.382812 1045.773438 1000.164062 1046.171875 999.90625 1046.554688 C 999.652344 1046.933594 999.359375 1047.285156 999.03125 1047.605469 C 998.707031 1047.929688 998.351562 1048.214844 997.96875 1048.46875 C 997.585938 1048.722656 997.179688 1048.933594 996.757812 1049.109375 C 989.589844 1052.011719 982.207031 1054.191406 974.613281 1055.652344 C 967.019531 1057.113281 959.355469 1057.828125 951.625 1057.792969 C 903.140625 1057.792969 855.140625 1030.496094 821.8125 999.59375 C 800.058594 979.382812 780.917969 956.257812 762.410156 933.894531 C 742.363281 909.675781 721.664062 884.65625 697.886719 863.808594 C 654.3125 825.574219 599.800781 800.574219 547.101562 776.484375 L 530.679688 768.957031 C 472.078125 741.914062 411.175781 711.226562 367.140625 660.214844 C 333.980469 621.898438 309.761719 563.214844 313.957031 509.042969 C 309.027344 518.121094 304.382812 527.339844 300.027344 536.703125 C 295.675781 546.066406 291.613281 555.558594 287.851562 565.175781 C 284.089844 574.792969 280.628906 584.519531 277.472656 594.351562 C 274.316406 604.1875 271.46875 614.109375 268.929688 624.117188 C 266.390625 634.128906 264.167969 644.207031 262.257812 654.359375 C 260.347656 664.507812 258.757812 674.707031 257.480469 684.953125 C 256.207031 695.203125 255.253906 705.480469 254.621094 715.789062 C 253.988281 726.097656 253.675781 736.414062 253.6875 746.742188 C 253.6875 1021.347656 477.136719 1244.671875 751.660156 1244.671875 C 1026.183594 1244.671875 1249.738281 1021.242188 1249.738281 746.65625 C 1249.738281 472.074219 1026.3125 248.707031 751.660156 248.707031 Z M 751.660156 248.707031 " fill-opacity="1" fill-rule="nonzero"/><path fill="#fbb03b" d="M 562.046875 828.0625 C 608.757812 826.710938 651.992188 853.355469 685.660156 885.835938 C 719.324219 918.316406 746.496094 956.953125 780.730469 988.738281 C 814.960938 1020.527344 859.460938 1045.777344 906.027344 1041.921875 C 838.402344 1014.203125 787.789062 954.109375 740.699219 898.210938 C 693.605469 842.308594 633.484375 787.273438 560.421875 785.800781 C 562.109375 802.703125 560.359375 811.15625 562.046875 828.0625 Z M 562.046875 828.0625 " fill-opacity="1" fill-rule="nonzero"/><path fill="#ffffff" d="M 406.9375 953.980469 C 440.078125 978.410156 477.851562 987.136719 519.019531 986.441406 C 492.820312 955.898438 466.109375 911.636719 461.09375 871.796875 C 513.457031 876.140625 566.683594 897.324219 606.164062 931.976562 C 604.523438 902.066406 596.320312 868.277344 574.378906 847.875 C 590.480469 850.339844 609.371094 849.035156 625.476562 851.5 C 621.070312 831.8125 609.117188 812.402344 593.855469 798.445312 C 578.277344 790.835938 562.53125 783.691406 546.953125 776.484375 L 530.53125 768.957031 C 471.929688 741.914062 411.027344 711.226562 366.992188 660.214844 C 333.980469 621.898438 309.761719 563.214844 313.957031 509.042969 C 311.46875 513.621094 309.054688 518.234375 306.710938 522.886719 C 304.371094 527.539062 302.101562 532.226562 299.90625 536.949219 C 297.714844 541.671875 295.59375 546.425781 293.546875 551.21875 C 291.503906 556.007812 289.53125 560.828125 287.640625 565.679688 C 285.746094 570.53125 283.925781 575.410156 282.1875 580.316406 C 280.445312 585.226562 278.78125 590.160156 277.195312 595.121094 C 275.609375 600.082031 274.101562 605.066406 272.671875 610.074219 C 271.242188 615.082031 269.890625 620.109375 268.621094 625.160156 C 267.347656 630.210938 266.15625 635.28125 265.042969 640.367188 C 263.929688 645.457031 262.898438 650.558594 261.945312 655.679688 C 260.992188 660.800781 260.121094 665.933594 259.332031 671.082031 C 258.539062 676.226562 257.828125 681.386719 257.199219 686.558594 C 256.570312 691.726562 256.023438 696.90625 255.554688 702.089844 C 255.089844 707.277344 254.703125 712.472656 254.398438 717.671875 C 254.097656 722.871094 253.875 728.070312 253.734375 733.277344 C 253.59375 738.484375 253.535156 743.691406 253.558594 748.898438 C 253.578125 754.105469 253.683594 759.3125 253.871094 764.519531 C 254.058594 769.722656 254.324219 774.921875 254.675781 780.117188 C 255.023438 785.316406 255.453125 790.503906 255.96875 795.6875 C 256.480469 800.871094 257.074219 806.042969 257.75 811.207031 C 258.421875 816.371094 259.179688 821.523438 260.015625 826.664062 C 260.851562 831.804688 261.769531 836.929688 262.765625 842.039062 C 263.765625 847.152344 264.839844 852.246094 266 857.324219 C 267.15625 862.402344 268.390625 867.460938 269.707031 872.5 C 271.023438 877.539062 272.417969 882.554688 273.894531 887.550781 C 275.367188 892.546875 276.917969 897.515625 278.546875 902.464844 C 280.175781 907.410156 281.882812 912.328125 283.667969 917.222656 C 285.453125 922.113281 287.3125 926.976562 289.25 931.8125 C 291.1875 936.648438 293.199219 941.449219 295.285156 946.222656 C 297.375 950.992188 299.535156 955.730469 301.769531 960.433594 C 304.007812 965.136719 306.316406 969.804688 308.699219 974.4375 C 311.082031 979.066406 313.535156 983.660156 316.0625 988.214844 C 316.0625 988.042969 316.210938 987.875 316.273438 987.6875 C 317.582031 990.46875 318.972656 993.207031 320.488281 995.925781 C 324.328125 1002.574219 328.316406 1009.109375 332.464844 1015.53125 C 363.726562 1060.425781 413.875 1092.171875 468.15625 1099.84375 C 433.542969 1061.648438 410.5 1005.347656 406.9375 953.980469 Z M 406.9375 953.980469 " fill-opacity="1" fill-rule="nonzero"/><path fill="#f15a24" d="M 751.660156 1244.671875 C 1026.3125 1244.671875 1249.738281 1021.242188 1249.738281 746.65625 C 1249.75 735.140625 1249.359375 723.640625 1248.570312 712.148438 C 1247.777344 700.660156 1246.585938 689.214844 1244.996094 677.808594 C 1243.40625 666.402344 1241.421875 655.066406 1239.039062 643.796875 C 1236.660156 632.53125 1233.886719 621.359375 1230.726562 610.285156 C 1227.566406 599.210938 1224.023438 588.261719 1220.097656 577.433594 C 1216.171875 566.605469 1211.875 555.929688 1207.203125 545.402344 C 1202.53125 534.878906 1197.5 524.527344 1192.105469 514.351562 C 1186.714844 504.175781 1180.972656 494.199219 1174.882812 484.425781 C 1175.09375 484.996094 1308.171875 830.378906 1039.484375 1078.109375 C 770.800781 1325.84375 266.335938 1110.066406 253.6875 746.742188 C 253.6875 1021.347656 477.136719 1244.671875 751.660156 1244.671875 Z M 751.660156 1244.671875 " fill-opacity="1" fill-rule="nonzero"/><path fill="#e2d5c7" d="M 254.003906 766.195312 C 254.152344 769.738281 254.320312 773.28125 254.53125 776.734375 C 254.53125 778.339844 254.71875 779.941406 254.824219 781.519531 C 255.101562 785.316406 255.394531 789.089844 255.753906 792.839844 C 255.753906 793.976562 255.941406 795.09375 256.046875 796.234375 C 256.535156 801.164062 257.101562 806.097656 257.734375 810.988281 L 257.988281 812.863281 C 258.558594 817.078125 259.191406 821.296875 259.863281 825.511719 C 260.054688 826.777344 260.265625 828.019531 260.476562 829.261719 C 261.128906 833.058594 261.804688 836.851562 262.582031 840.601562 L 263.214844 843.890625 C 265.175781 853.714844 267.433594 863.453125 269.917969 873.042969 C 270.023438 873.441406 270.152344 873.84375 270.257812 874.265625 C 271.414062 878.648438 272.660156 883.03125 273.945312 887.394531 L 274.578125 889.503906 C 275.984375 893.957031 277.390625 898.378906 278.792969 902.761719 C 278.792969 903.015625 278.941406 903.246094 279.027344 903.5 C 282.273438 913.238281 285.785156 922.851562 289.566406 932.335938 L 289.691406 932.628906 C 291.546875 937.238281 293.480469 941.8125 295.488281 946.351562 L 295.742188 946.941406 C 301.941406 960.992188 308.753906 974.6875 316.191406 988.023438 C 316.191406 987.855469 316.335938 987.6875 316.402344 987.496094 C 317.707031 990.277344 319.097656 993.019531 320.617188 995.738281 C 322.527344 999.039062 324.480469 1002.328125 326.476562 1005.601562 L 326.601562 1005.8125 C 328.5625 1009.015625 330.546875 1012.136719 332.589844 1015.339844 C 363.851562 1060.238281 414 1091.980469 468.28125 1099.652344 C 467.269531 1098.558594 466.300781 1097.375 465.308594 1096.238281 C 345.765625 1018.671875 258.769531 894.964844 253.6875 746.742188 C 253.6875 751.714844 253.6875 756.691406 253.917969 761.625 C 253.878906 763.121094 253.941406 764.617188 254.003906 766.195312 Z M 254.003906 766.195312 " fill-opacity="1" fill-rule="nonzero"/><path fill="#f15a24" d="M 746.496094 432.234375 L 727.988281 556.257812 C 721.347656 600.523438 714.285156 645.945312 691.6875 684.5625 C 669.089844 723.175781 626.929688 753.84375 582.410156 749.335938 C 616.136719 769.546875 654.292969 762.214844 685.699219 738.5 C 717.109375 714.789062 735.976562 677.667969 746.199219 639.730469 C 764.5625 571.5 756.699219 502.152344 746.496094 432.234375 Z M 746.496094 432.234375 " fill-opacity="1" fill-rule="nonzero"/><path fill="#f15a24" d="M 767.007812 580.394531 C 768.640625 583.863281 770.617188 587.128906 772.941406 590.183594 C 775.261719 593.242188 777.875 596.023438 780.777344 598.53125 C 783.683594 601.035156 786.816406 603.214844 790.179688 605.0625 C 793.542969 606.914062 797.0625 608.390625 800.734375 609.503906 C 787.179688 667.550781 772.867188 726.90625 759.3125 784.957031 C 738.105469 768.515625 714.074219 751.441406 692.867188 735 C 734.710938 695.523438 765.59375 637.875 767.007812 580.394531 Z M 767.007812 580.394531 " fill-opacity="1" fill-rule="nonzero"/><path fill="#f15a24" d="M 928.921875 582.25 C 923.867188 584.875 918.976562 587.773438 914.25 590.945312 C 909.519531 594.113281 904.980469 597.539062 900.628906 601.214844 C 896.28125 604.890625 892.148438 608.792969 888.234375 612.929688 C 884.320312 617.066406 880.648438 621.40625 877.21875 625.949219 C 873.789062 630.492188 870.617188 635.214844 867.714844 640.109375 C 864.808594 645.007812 862.183594 650.050781 859.835938 655.238281 C 857.492188 660.425781 855.445312 665.730469 853.691406 671.148438 C 851.933594 676.5625 850.488281 682.0625 849.34375 687.640625 C 846.035156 704.5 845.613281 721.808594 842.007812 738.605469 C 838.402344 755.40625 830.960938 772.332031 817.007812 782.300781 C 803.054688 792.269531 781.550781 792.988281 769.976562 780.296875 C 769.453125 799.269531 770.738281 816.933594 787.011719 826.816406 C 803.875 837.039062 826.597656 831.035156 841.355469 818.070312 C 856.109375 805.109375 864.667969 786.621094 872.804688 768.746094 C 858.34375 699.191406 872.617188 625.691406 928.921875 582.25 Z M 928.921875 582.25 " fill-opacity="1" fill-rule="nonzero"/><path fill="#f15a24" d="M 887.648438 661.015625 C 899.121094 671.738281 911.503906 681.285156 924.789062 689.660156 C 938.074219 698.03125 952.03125 705.078125 966.65625 710.804688 C 938.070312 704.964844 904.300781 707.578125 877.71875 719.613281 C 881.976562 702.4375 883.386719 678.195312 887.648438 661.015625 Z M 887.648438 661.015625 " fill-opacity="1" fill-rule="nonzero"/><path fill="#f15a24" d="M 729.0625 771.234375 C 711.566406 769.128906 700.519531 792.523438 706.378906 809.175781 C 712.242188 825.828125 727.628906 836.765625 740.742188 848.527344 C 766.625 871.714844 785.894531 901.328125 805.160156 930.289062 C 824.429688 959.25 844.410156 988.402344 871.332031 1010.492188 C 898.25 1032.582031 933.390625 1046.957031 967.75 1041.519531 C 931.261719 1062.933594 882.144531 1049.632812 849.195312 1023.097656 C 816.25 996.558594 793.988281 959.421875 767.703125 926.390625 C 760.957031 917.917969 753.929688 909.6875 746.617188 901.699219 C 739.304688 893.710938 731.726562 885.984375 723.882812 878.515625 C 716.039062 871.050781 707.945312 863.863281 699.605469 856.953125 C 691.265625 850.046875 682.699219 843.433594 673.902344 837.117188 C 665.109375 830.796875 656.105469 824.789062 646.894531 819.09375 C 637.683594 813.394531 628.289062 808.023438 618.710938 802.972656 C 609.128906 797.921875 599.386719 793.210938 589.480469 788.832031 C 579.574219 784.453125 569.53125 780.421875 559.347656 776.734375 C 566.261719 768.011719 574.417969 762.464844 585.488281 761.117188 C 596.554688 759.769531 607.769531 760.800781 618.898438 760.210938 C 624.785156 759.890625 630.613281 759.132812 636.382812 757.9375 C 642.15625 756.742188 647.804688 755.121094 653.335938 753.078125 C 658.863281 751.03125 664.207031 748.582031 669.367188 745.734375 C 674.527344 742.886719 679.445312 739.664062 684.121094 736.078125 L 684.941406 742.992188 C 697.96875 753.550781 715.992188 760.613281 729.0625 771.234375 Z M 729.0625 771.234375 " fill-opacity="1" fill-rule="nonzero"/><path fill="#fbb03b" d="M 874.28125 763.582031 C 877.535156 761.023438 880.902344 758.625 884.390625 756.390625 C 887.875 754.15625 891.464844 752.097656 895.148438 750.214844 C 898.835938 748.332031 902.605469 746.628906 906.457031 745.113281 C 910.3125 743.59375 914.226562 742.269531 918.210938 741.132812 C 922.191406 739.996094 926.21875 739.058594 930.292969 738.3125 C 934.363281 737.570312 938.464844 737.023438 942.589844 736.679688 C 946.714844 736.335938 950.847656 736.191406 954.988281 736.25 C 959.128906 736.308594 963.257812 736.566406 967.371094 737.023438 C 1009.53125 741.957031 1045.894531 767.417969 1080.339844 792.082031 C 1077.757812 785.707031 1074.664062 779.589844 1071.058594 773.734375 C 1067.453125 767.875 1063.382812 762.363281 1058.851562 757.1875 C 1054.320312 752.015625 1049.386719 747.253906 1044.058594 742.90625 C 1038.726562 738.5625 1033.070312 734.691406 1027.089844 731.292969 C 1020.984375 727.828125 1014.632812 724.882812 1008.042969 722.460938 C 1001.453125 720.039062 994.707031 718.167969 987.8125 716.851562 C 980.914062 715.539062 973.957031 714.792969 966.933594 714.621094 C 959.914062 714.445312 952.929688 714.847656 945.976562 715.820312 C 915.789062 706.210938 884.84375 716.199219 863.617188 739.785156 C 856.976562 747.226562 866.988281 756.839844 874.28125 763.582031 Z M 874.28125 763.582031 " fill-opacity="1" fill-rule="nonzero"/><path fill="#fbb03b" d="M 533.777344 723.726562 C 537.699219 688.628906 524.058594 653.976562 507.425781 622.84375 C 490.796875 591.710938 470.8125 561.949219 460.269531 528.289062 C 459.1875 524.742188 458.210938 521.167969 457.339844 517.5625 C 456.472656 513.960938 455.710938 510.332031 455.054688 506.683594 C 454.402344 503.035156 453.859375 499.367188 453.421875 495.6875 C 452.988281 492.003906 452.664062 488.3125 452.449219 484.609375 C 452.234375 480.910156 452.128906 477.207031 452.136719 473.496094 C 452.140625 469.789062 452.257812 466.085938 452.484375 462.386719 C 452.714844 458.683594 453.050781 454.992188 453.5 451.3125 C 453.945312 447.632812 454.503906 443.96875 455.167969 440.320312 C 455.832031 436.675781 456.609375 433.050781 457.488281 429.449219 C 458.371094 425.847656 459.359375 422.277344 460.457031 418.734375 C 461.550781 415.191406 462.75 411.6875 464.054688 408.214844 C 465.359375 404.746094 466.765625 401.316406 468.273438 397.929688 C 469.785156 394.542969 471.390625 391.203125 473.101562 387.914062 C 474.808594 384.621094 476.613281 381.382812 478.511719 378.203125 C 480.414062 375.019531 482.410156 371.894531 484.496094 368.832031 C 486.582031 365.765625 488.761719 362.765625 491.027344 359.832031 C 493.136719 357.28125 492.839844 351.78125 493.367188 348.554688 C 484.703125 346.804688 473.046875 343.917969 464.382812 342.230469 C 424.878906 368.285156 406.179688 426.164062 410.859375 473.210938 C 415.539062 520.257812 438.09375 563.617188 463.136719 603.75 C 488.179688 643.882812 515.816406 679.964844 533.777344 723.726562 Z M 533.777344 723.726562 " fill-opacity="1" fill-rule="nonzero"/><path fill="#f15a24" d="M 499.773438 338.710938 C 501.089844 338.726562 502.398438 338.652344 503.699219 338.488281 C 505.003906 338.324219 506.289062 338.070312 507.558594 337.730469 C 508.828125 337.390625 510.066406 336.964844 511.277344 336.453125 C 512.488281 335.945312 513.65625 335.355469 514.789062 334.683594 C 515.917969 334.015625 516.996094 333.269531 518.023438 332.453125 C 519.054688 331.636719 520.019531 330.753906 520.929688 329.804688 C 521.835938 328.851562 522.671875 327.847656 523.441406 326.78125 C 524.210938 325.71875 524.90625 324.605469 525.523438 323.445312 C 526.140625 322.289062 526.675781 321.089844 527.132812 319.859375 C 527.585938 318.625 527.953125 317.367188 528.234375 316.085938 C 528.515625 314.804688 528.710938 313.507812 528.816406 312.199219 C 528.921875 310.890625 528.933594 309.578125 528.859375 308.265625 C 528.785156 306.957031 528.625 305.65625 528.371094 304.367188 C 528.117188 303.078125 527.78125 301.8125 527.355469 300.570312 C 526.929688 299.328125 526.421875 298.117188 525.832031 296.945312 C 525.238281 295.773438 524.574219 294.644531 523.828125 293.5625 C 516.785156 283.339844 504.179688 278.808594 492.398438 274.910156 L 409.195312 247.253906 C 416.003906 292.886719 453.652344 338.183594 499.773438 338.710938 Z M 499.773438 338.710938 " fill-opacity="1" fill-rule="nonzero"/><path fill="#ffffff" d="M 507.089844 663.441406 C 535.316406 635.027344 581.945312 626.933594 618.097656 644.175781 C 654.25 661.417969 677.3125 702.773438 672.90625 742.589844 C 641.453125 767.230469 598.113281 773.890625 562.003906 756.796875 C 543.601562 728.257812 525.621094 692.066406 507.089844 663.441406 Z M 507.089844 663.441406 " fill-opacity="1" fill-rule="nonzero"/><path fill="#fbb03b" d="M 351.625 482.234375 L 414.613281 456.9375 C 415.160156 447.832031 413.707031 441.382812 414.273438 432.277344 C 381.894531 433.964844 351.941406 446.632812 326.707031 466.972656 L 329.027344 466.085938 C 337.523438 471.609375 343.128906 476.730469 351.625 482.234375 Z M 351.625 482.234375 " fill-opacity="1" fill-rule="nonzero"/><path fill="#701c05" d="M 751.660156 231.929688 C 726.960938 231.917969 702.382812 233.671875 677.9375 237.191406 C 653.488281 240.714844 629.417969 245.964844 605.722656 252.945312 C 604.984375 253.152344 604.28125 253.449219 603.613281 253.832031 C 602.929688 253.585938 602.226562 253.417969 601.507812 253.324219 C 574.460938 249.996094 404.472656 228.707031 404.472656 228.707031 C 403.800781 228.617188 403.125 228.601562 402.449219 228.65625 C 401.773438 228.710938 401.113281 228.832031 400.460938 229.023438 C 399.8125 229.214844 399.1875 229.472656 398.59375 229.796875 C 397.996094 230.117188 397.441406 230.5 396.921875 230.9375 C 396.40625 231.375 395.941406 231.863281 395.523438 232.398438 C 395.109375 232.933594 394.753906 233.507812 394.457031 234.117188 C 394.164062 234.726562 393.933594 235.359375 393.769531 236.019531 C 393.605469 236.675781 393.515625 237.34375 393.488281 238.023438 C 391.382812 288.335938 425.449219 320.605469 453.421875 338.566406 C 443.9375 351.238281 435.800781 364.722656 429.011719 379.023438 C 422.222656 393.320312 416.917969 408.148438 413.09375 423.507812 L 319.394531 452.132812 C 318.554688 452.398438 317.765625 452.765625 317.027344 453.242188 C 316.285156 453.71875 315.625 454.285156 315.035156 454.941406 C 314.449219 455.597656 313.960938 456.316406 313.570312 457.105469 C 313.175781 457.894531 312.894531 458.71875 312.726562 459.582031 C 312.558594 460.445312 312.503906 461.3125 312.570312 462.191406 C 312.636719 463.070312 312.816406 463.921875 313.113281 464.75 C 313.40625 465.578125 313.808594 466.351562 314.3125 467.074219 C 314.816406 467.792969 315.40625 468.433594 316.085938 468.996094 L 317.625 470.238281 C 317.082031 470.75 316.613281 471.320312 316.210938 471.945312 C 309.753906 482.160156 303.667969 492.589844 297.949219 503.234375 C 292.230469 513.878906 286.894531 524.710938 281.9375 535.730469 C 276.984375 546.75 272.425781 557.933594 268.261719 569.277344 C 264.097656 580.617188 260.339844 592.09375 256.984375 603.703125 C 253.632812 615.3125 250.691406 627.023438 248.164062 638.839844 C 245.640625 650.65625 243.53125 662.546875 241.847656 674.507812 C 240.160156 686.472656 238.898438 698.484375 238.058594 710.539062 C 237.222656 722.589844 236.808594 734.660156 236.824219 746.742188 C 236.824219 1030.601562 467.777344 1261.53125 751.660156 1261.53125 C 1035.542969 1261.53125 1266.515625 1030.601562 1266.515625 746.742188 C 1266.515625 462.882812 1035.542969 231.929688 751.660156 231.929688 Z M 335.351562 484.59375 L 420.726562 553.625 C 435.859375 591.734375 459.703125 623.773438 479.601562 650.476562 C 481.519531 653.027344 483.394531 655.558594 485.210938 658.023438 C 524.859375 711.582031 525.070312 743.09375 525.070312 743.75 C 525.035156 745.382812 525.386719 746.929688 526.125 748.386719 C 472.917969 723.367188 418.785156 694.53125 379.746094 649.257812 C 344.605469 608.554688 319.265625 539.671875 335.351562 484.59375 Z M 408.414062 445.386719 C 406.292969 457.773438 405.390625 470.25 405.710938 482.8125 C 406.03125 495.371094 407.5625 507.785156 410.3125 520.046875 L 342.730469 465.414062 Z M 751.660156 1241.972656 C 478.570312 1241.972656 256.386719 1019.808594 256.386719 746.742188 C 256.367188 727.210938 257.503906 707.742188 259.796875 688.34375 C 262.085938 668.945312 265.511719 649.75 270.078125 630.761719 C 274.644531 611.769531 280.316406 593.113281 287.09375 574.792969 C 293.871094 556.472656 301.710938 538.617188 310.605469 521.226562 C 310.605469 572.59375 333.792969 626.15625 364.84375 662.050781 C 409.238281 713.480469 470.453125 744.253906 529.265625 771.488281 L 545.707031 779.035156 C 598.238281 803.082031 652.542969 827.957031 695.820312 865.898438 C 719.40625 886.59375 740.085938 911.550781 760.027344 935.664062 C 778.578125 958.113281 797.78125 981.320312 819.683594 1001.640625 C 853.414062 1032.960938 902.085938 1060.660156 951.414062 1060.660156 C 959.324219 1060.699219 967.160156 1059.96875 974.929688 1058.476562 C 982.699219 1056.984375 990.246094 1054.753906 997.578125 1051.785156 C 998.171875 1051.542969 998.738281 1051.242188 999.273438 1050.890625 C 999.808594 1050.535156 1000.304688 1050.132812 1000.761719 1049.679688 C 1001.21875 1049.230469 1001.625 1048.738281 1001.984375 1048.207031 C 1002.34375 1047.675781 1002.648438 1047.113281 1002.898438 1046.519531 C 1003.148438 1045.929688 1003.335938 1045.316406 1003.464844 1044.6875 C 1003.59375 1044.058594 1003.660156 1043.425781 1003.664062 1042.78125 C 1003.667969 1042.140625 1003.609375 1041.503906 1003.488281 1040.875 C 1003.367188 1040.246094 1003.183594 1039.632812 1002.941406 1039.039062 C 1002.699219 1038.441406 1002.402344 1037.878906 1002.050781 1037.339844 C 1001.695312 1036.804688 1001.292969 1036.308594 1000.84375 1035.851562 C 1000.390625 1035.394531 999.898438 1034.988281 999.367188 1034.625 C 998.835938 1034.265625 998.277344 1033.960938 997.683594 1033.710938 C 997.09375 1033.460938 996.484375 1033.273438 995.855469 1033.140625 C 995.226562 1033.011719 994.589844 1032.945312 993.949219 1032.941406 C 993.304688 1032.9375 992.667969 1032.992188 992.039062 1033.113281 C 991.410156 1033.234375 990.796875 1033.417969 990.199219 1033.65625 C 935.183594 1056.019531 872.910156 1024.425781 833.007812 987.285156 C 812.03125 967.851562 793.25 945.128906 775.101562 923.1875 C 754.632812 898.484375 733.488281 872.914062 708.71875 851.183594 C 684.644531 830.105469 657.683594 813.011719 629.667969 797.960938 C 631.109375 796.535156 632.648438 795.21875 634.277344 794.015625 C 635.910156 792.808594 637.617188 791.726562 639.40625 790.769531 C 641.191406 789.8125 643.039062 788.984375 644.945312 788.292969 C 646.851562 787.601562 648.796875 787.050781 650.78125 786.640625 C 652.765625 786.226562 654.773438 785.960938 656.796875 785.839844 C 658.820312 785.71875 660.84375 785.742188 662.863281 785.910156 C 664.882812 786.082031 666.882812 786.394531 668.859375 786.851562 C 670.832031 787.3125 672.765625 787.910156 674.65625 788.644531 C 675.246094 788.894531 675.855469 789.085938 676.484375 789.214844 C 677.113281 789.34375 677.75 789.410156 678.394531 789.414062 C 679.035156 789.417969 679.671875 789.363281 680.300781 789.242188 C 680.933594 789.121094 681.546875 788.9375 682.140625 788.695312 C 682.734375 788.453125 683.300781 788.15625 683.839844 787.804688 C 684.375 787.449219 684.871094 787.046875 685.328125 786.597656 C 685.785156 786.148438 686.195312 785.65625 686.554688 785.125 C 686.917969 784.59375 687.222656 784.03125 687.472656 783.4375 C 687.722656 782.847656 687.910156 782.238281 688.039062 781.609375 C 688.167969 780.980469 688.238281 780.34375 688.242188 779.699219 C 688.246094 779.058594 688.1875 778.421875 688.066406 777.792969 C 687.945312 777.160156 687.765625 776.546875 687.523438 775.953125 C 687.28125 775.359375 686.984375 774.792969 686.628906 774.257812 C 686.277344 773.71875 685.875 773.222656 685.421875 772.765625 C 684.972656 772.308594 684.480469 771.898438 683.949219 771.539062 C 683.417969 771.179688 682.855469 770.875 682.265625 770.625 C 680.761719 770.023438 679.242188 769.484375 677.695312 769.003906 C 676.152344 768.527344 674.59375 768.109375 673.015625 767.753906 C 671.4375 767.398438 669.851562 767.105469 668.25 766.875 C 666.652344 766.640625 665.042969 766.476562 663.429688 766.371094 C 661.816406 766.269531 660.203125 766.226562 658.585938 766.25 C 656.96875 766.277344 655.359375 766.363281 653.75 766.515625 C 652.140625 766.664062 650.539062 766.878906 648.945312 767.15625 C 647.351562 767.433594 645.773438 767.773438 644.207031 768.175781 C 642.644531 768.578125 641.09375 769.042969 639.566406 769.566406 C 638.039062 770.09375 636.53125 770.675781 635.046875 771.320312 C 633.566406 771.964844 632.109375 772.664062 630.683594 773.421875 C 629.253906 774.179688 627.859375 774.992188 626.496094 775.863281 C 625.132812 776.730469 623.808594 777.652344 622.515625 778.625 C 621.226562 779.597656 619.976562 780.621094 618.765625 781.691406 C 617.554688 782.765625 616.390625 783.882812 615.269531 785.046875 C 614.148438 786.210938 613.074219 787.417969 612.046875 788.667969 C 602.390625 783.796875 592.652344 779.117188 582.914062 774.542969 C 585.570312 774.648438 588.226562 774.691406 590.820312 774.691406 C 626.804688 774.691406 656.738281 765.710938 684.605469 746.617188 C 685.1875 747.480469 685.890625 748.230469 686.710938 748.871094 L 754.738281 800.195312 L 755.265625 800.535156 C 757.730469 815.078125 764.433594 827.578125 774.40625 835.628906 C 776.621094 837.351562 778.964844 838.871094 781.441406 840.195312 C 783.914062 841.519531 786.484375 842.625 789.144531 843.515625 C 791.804688 844.402344 794.523438 845.0625 797.296875 845.488281 C 800.070312 845.917969 802.859375 846.109375 805.667969 846.0625 C 809.160156 846.042969 812.628906 845.726562 816.070312 845.117188 C 819.511719 844.507812 822.878906 843.609375 826.167969 842.425781 C 829.457031 841.242188 832.621094 839.792969 835.664062 838.070312 C 838.703125 836.347656 841.578125 834.382812 844.285156 832.171875 C 860.304688 819.125 870.992188 798.972656 876.03125 772.246094 C 877.921875 761.433594 879.246094 750.550781 879.996094 739.597656 C 880.804688 739.324219 881.566406 738.945312 882.269531 738.457031 C 916.90625 714.21875 967.601562 711.792969 1008.457031 732.429688 C 1015.375 735.945312 1021.964844 740.003906 1028.21875 744.601562 C 1034.472656 749.199219 1040.308594 754.277344 1045.730469 759.832031 C 1051.152344 765.390625 1056.082031 771.351562 1060.523438 777.714844 C 1064.964844 784.082031 1068.859375 790.765625 1072.203125 797.773438 C 1072.476562 798.351562 1072.808594 798.902344 1073.191406 799.414062 C 1073.578125 799.929688 1074.007812 800.402344 1074.488281 800.835938 C 1074.964844 801.265625 1075.480469 801.644531 1076.03125 801.972656 C 1076.585938 802.300781 1077.164062 802.574219 1077.769531 802.789062 C 1078.375 803.003906 1078.996094 803.15625 1079.632812 803.246094 C 1080.269531 803.339844 1080.910156 803.371094 1081.550781 803.335938 C 1082.191406 803.300781 1082.824219 803.207031 1083.449219 803.046875 C 1084.070312 802.890625 1084.671875 802.671875 1085.253906 802.394531 C 1085.832031 802.117188 1086.382812 801.785156 1086.894531 801.402344 C 1087.410156 801.015625 1087.882812 800.585938 1088.3125 800.109375 C 1088.742188 799.628906 1089.121094 799.113281 1089.449219 798.5625 C 1089.78125 798.007812 1090.050781 797.429688 1090.265625 796.824219 C 1090.480469 796.21875 1090.632812 795.597656 1090.722656 794.960938 C 1090.816406 794.324219 1090.84375 793.683594 1090.808594 793.042969 C 1090.777344 792.402344 1090.679688 791.769531 1090.519531 791.144531 C 1090.363281 790.523438 1090.144531 789.921875 1089.867188 789.339844 C 1087.964844 785.359375 1085.902344 781.460938 1083.679688 777.648438 C 1081.457031 773.835938 1079.082031 770.121094 1076.550781 766.503906 C 1074.023438 762.886719 1071.355469 759.378906 1068.539062 755.980469 C 1065.722656 752.582031 1062.773438 749.304688 1059.6875 746.148438 C 1056.605469 742.992188 1053.394531 739.964844 1050.0625 737.074219 C 1046.730469 734.179688 1043.285156 731.429688 1039.726562 728.816406 C 1036.167969 726.207031 1032.507812 723.746094 1028.75 721.433594 C 1024.988281 719.125 1021.140625 716.972656 1017.203125 714.976562 C 973.589844 692.929688 922.027344 693.4375 882.1875 715.441406 C 882.417969 713.566406 882.652344 711.710938 882.925781 709.875 C 883.730469 704.484375 884.742188 699.132812 885.96875 693.820312 C 887.195312 688.507812 888.625 683.253906 890.265625 678.054688 C 891.902344 672.855469 893.746094 667.730469 895.789062 662.675781 C 897.832031 657.621094 900.070312 652.65625 902.503906 647.777344 C 904.9375 642.898438 907.558594 638.125 910.367188 633.453125 C 913.175781 628.78125 916.167969 624.226562 919.335938 619.792969 C 922.503906 615.355469 925.839844 611.050781 929.347656 606.878906 C 932.855469 602.703125 936.523438 598.675781 940.347656 594.789062 C 940.796875 594.332031 941.199219 593.835938 941.550781 593.300781 C 941.902344 592.765625 942.199219 592.199219 942.441406 591.605469 C 942.683594 591.011719 942.863281 590.398438 942.984375 589.769531 C 943.105469 589.136719 943.164062 588.503906 943.160156 587.859375 C 943.15625 587.21875 943.089844 586.582031 942.960938 585.957031 C 942.832031 585.328125 942.644531 584.71875 942.394531 584.125 C 942.144531 583.535156 941.839844 582.972656 941.480469 582.441406 C 941.121094 581.910156 940.714844 581.417969 940.257812 580.96875 C 939.800781 580.515625 939.304688 580.113281 938.769531 579.757812 C 938.234375 579.40625 937.671875 579.109375 937.078125 578.863281 C 936.484375 578.621094 935.871094 578.441406 935.242188 578.316406 C 934.609375 578.195312 933.976562 578.136719 933.332031 578.136719 C 932.691406 578.140625 932.058594 578.207031 931.429688 578.332031 C 930.800781 578.460938 930.1875 578.648438 929.597656 578.898438 C 929.003906 579.144531 928.441406 579.449219 927.910156 579.804688 C 927.378906 580.164062 926.886719 580.570312 926.433594 581.027344 C 922.246094 585.28125 918.234375 589.691406 914.394531 594.261719 C 910.554688 598.828125 906.898438 603.542969 903.429688 608.398438 C 899.960938 613.257812 896.691406 618.242188 893.613281 623.359375 C 890.539062 628.472656 887.667969 633.699219 885.003906 639.039062 C 882.339844 644.382812 879.890625 649.820312 877.652344 655.351562 C 875.417969 660.886719 873.402344 666.5 871.605469 672.191406 C 869.8125 677.882812 868.246094 683.636719 866.90625 689.453125 C 865.5625 695.269531 864.453125 701.128906 863.574219 707.03125 C 862.203125 716.347656 861.464844 725.75 860.683594 734.832031 C 859.957031 746.144531 858.636719 757.386719 856.722656 768.558594 C 853.941406 783.3125 847.59375 803.1875 833.175781 815.792969 C 832.414062 814.621094 831.742188 813.402344 831.15625 812.132812 C 830.574219 810.859375 830.085938 809.554688 829.691406 808.214844 C 829.300781 806.871094 829.007812 805.507812 828.8125 804.125 C 828.621094 802.738281 828.527344 801.347656 828.539062 799.949219 C 828.546875 798.554688 828.660156 797.164062 828.875 795.78125 C 829.085938 794.398438 829.402344 793.042969 829.8125 791.707031 C 830.226562 790.371094 830.734375 789.070312 831.335938 787.808594 C 831.9375 786.546875 832.628906 785.335938 833.40625 784.175781 C 833.78125 783.65625 834.101562 783.101562 834.367188 782.515625 C 834.632812 781.933594 834.839844 781.328125 834.984375 780.703125 C 835.132812 780.078125 835.214844 779.441406 835.234375 778.800781 C 835.257812 778.160156 835.214844 777.523438 835.113281 776.886719 C 835.007812 776.253906 834.84375 775.636719 834.617188 775.035156 C 834.390625 774.433594 834.109375 773.859375 833.769531 773.316406 C 833.429688 772.769531 833.042969 772.261719 832.605469 771.792969 C 832.164062 771.324219 831.683594 770.902344 831.164062 770.527344 C 830.640625 770.15625 830.085938 769.835938 829.503906 769.570312 C 828.917969 769.304688 828.3125 769.097656 827.6875 768.953125 C 827.0625 768.804688 826.429688 768.722656 825.785156 768.699219 C 825.144531 768.679688 824.507812 768.71875 823.875 768.824219 C 823.238281 768.929688 822.621094 769.09375 822.019531 769.320312 C 821.417969 769.546875 820.847656 769.828125 820.300781 770.167969 C 819.753906 770.503906 819.246094 770.894531 818.777344 771.332031 C 818.308594 771.773438 817.886719 772.25 817.511719 772.773438 C 816.199219 774.671875 815.027344 776.652344 814 778.71875 C 812.96875 780.785156 812.09375 782.914062 811.371094 785.109375 C 810.648438 787.300781 810.085938 789.53125 809.683594 791.804688 C 809.28125 794.078125 809.042969 796.367188 808.96875 798.675781 C 808.894531 800.984375 808.984375 803.28125 809.242188 805.578125 C 809.5 807.871094 809.921875 810.136719 810.503906 812.367188 C 811.085938 814.601562 811.824219 816.78125 812.71875 818.910156 C 813.613281 821.039062 814.65625 823.089844 815.847656 825.070312 C 813.886719 825.601562 811.898438 825.988281 809.882812 826.226562 C 809.753906 825.144531 809.449219 824.109375 808.972656 823.128906 C 808.496094 822.144531 807.871094 821.265625 807.101562 820.496094 C 806.328125 819.679688 805.589844 818.835938 804.890625 817.964844 C 804.1875 817.089844 803.523438 816.1875 802.898438 815.257812 C 802.269531 814.328125 801.683594 813.371094 801.136719 812.394531 C 800.59375 811.414062 800.085938 810.414062 799.625 809.390625 C 799.164062 808.371094 798.742188 807.332031 798.367188 806.277344 C 797.992188 805.21875 797.660156 804.148438 797.375 803.066406 C 797.085938 801.980469 796.847656 800.886719 796.652344 799.78125 C 796.457031 798.679688 796.308594 797.566406 796.207031 796.453125 C 796.105469 795.335938 796.050781 794.214844 796.042969 793.09375 C 796.035156 791.972656 796.070312 790.855469 796.15625 789.734375 C 796.242188 788.617188 796.375 787.507812 796.554688 786.398438 C 796.730469 785.292969 796.957031 784.195312 797.226562 783.105469 C 797.496094 782.019531 797.8125 780.941406 798.171875 779.882812 C 798.53125 778.820312 798.933594 777.773438 799.382812 776.746094 C 799.832031 775.71875 800.320312 774.710938 800.851562 773.722656 C 801.382812 772.738281 801.957031 771.773438 802.566406 770.835938 C 802.945312 770.308594 803.265625 769.75 803.53125 769.160156 C 803.792969 768.570312 804 767.960938 804.144531 767.328125 C 804.289062 766.699219 804.367188 766.0625 804.386719 765.414062 C 804.402344 764.769531 804.355469 764.125 804.246094 763.488281 C 804.136719 762.851562 803.964844 762.230469 803.734375 761.628906 C 803.5 761.023438 803.210938 760.449219 802.863281 759.90625 C 802.515625 759.359375 802.121094 758.851562 801.671875 758.386719 C 801.226562 757.917969 800.734375 757.5 800.207031 757.128906 C 799.675781 756.757812 799.113281 756.445312 798.519531 756.1875 C 797.929688 755.929688 797.316406 755.730469 796.683594 755.59375 C 796.050781 755.457031 795.410156 755.382812 794.765625 755.371094 C 794.117188 755.359375 793.476562 755.414062 792.839844 755.53125 C 792.207031 755.648438 791.585938 755.824219 790.984375 756.066406 C 790.386719 756.304688 789.8125 756.601562 789.273438 756.953125 C 788.730469 757.308594 788.226562 757.710938 787.765625 758.160156 C 787.304688 758.613281 786.890625 759.109375 786.527344 759.640625 C 785.25 761.542969 784.085938 763.515625 783.039062 765.550781 C 781.988281 767.585938 781.0625 769.675781 780.253906 771.820312 C 779.445312 773.964844 778.765625 776.148438 778.210938 778.371094 C 777.65625 780.59375 777.230469 782.839844 776.933594 785.113281 C 776.636719 787.382812 776.472656 789.664062 776.4375 791.953125 C 776.40625 794.246094 776.503906 796.53125 776.734375 798.808594 C 776.964844 801.089844 777.328125 803.347656 777.820312 805.585938 C 778.3125 807.820312 778.929688 810.023438 779.675781 812.191406 C 777.8125 808.886719 776.375 805.40625 775.367188 801.753906 C 774.359375 798.097656 773.804688 794.375 773.710938 790.585938 C 773.140625 777.9375 776.34375 764.847656 779.441406 752.160156 L 831.636719 538.152344 C 831.832031 537.515625 831.960938 536.867188 832.023438 536.203125 C 832.082031 535.542969 832.078125 534.878906 832.003906 534.21875 C 831.933594 533.554688 831.792969 532.910156 831.585938 532.277344 C 831.382812 531.644531 831.113281 531.035156 830.785156 530.457031 C 830.457031 529.878906 830.070312 529.339844 829.632812 528.839844 C 829.191406 528.339844 828.707031 527.890625 828.175781 527.488281 C 827.644531 527.085938 827.078125 526.746094 826.476562 526.460938 C 825.875 526.171875 825.253906 525.953125 824.605469 525.792969 C 823.960938 525.636719 823.304688 525.542969 822.636719 525.519531 C 821.972656 525.496094 821.3125 525.539062 820.65625 525.652344 C 820 525.761719 819.359375 525.9375 818.742188 526.179688 C 818.121094 526.417969 817.53125 526.71875 816.972656 527.082031 C 816.414062 527.445312 815.894531 527.859375 815.421875 528.324219 C 814.945312 528.792969 814.523438 529.300781 814.15625 529.855469 C 813.785156 530.40625 813.472656 530.992188 813.222656 531.609375 C 812.972656 532.226562 812.785156 532.863281 812.664062 533.515625 L 760.429688 747.523438 C 757.964844 756.832031 756.089844 766.261719 754.800781 775.808594 L 700.203125 734.582031 L 700.308594 734.582031 C 739.558594 701.296875 757.476562 666.078125 766.351562 604.570312 C 769.683594 581.59375 767.492188 553.183594 765.171875 523.101562 C 762.851562 493.023438 760.472656 461.789062 763.757812 435.546875 C 763.828125 434.914062 763.835938 434.277344 763.78125 433.644531 C 763.726562 433.011719 763.609375 432.386719 763.433594 431.777344 C 763.257812 431.164062 763.023438 430.578125 762.730469 430.011719 C 762.4375 429.445312 762.097656 428.914062 761.699219 428.414062 C 761.304688 427.914062 760.863281 427.460938 760.378906 427.046875 C 759.894531 426.632812 759.375 426.273438 758.820312 425.960938 C 758.265625 425.648438 757.6875 425.394531 757.082031 425.195312 C 756.476562 424.996094 755.859375 424.859375 755.226562 424.78125 C 754.59375 424.703125 753.960938 424.6875 753.328125 424.734375 C 752.691406 424.78125 752.066406 424.886719 751.453125 425.054688 C 750.839844 425.222656 750.25 425.449219 749.679688 425.734375 C 749.109375 426.015625 748.570312 426.351562 748.066406 426.742188 C 747.5625 427.128906 747.101562 427.5625 746.679688 428.042969 C 746.261719 428.519531 745.890625 429.035156 745.574219 429.585938 C 745.253906 430.136719 744.992188 430.710938 744.785156 431.3125 C 744.578125 431.917969 744.429688 432.53125 744.34375 433.164062 C 740.804688 461.34375 743.289062 493.53125 745.671875 524.640625 C 747.90625 553.625 749.996094 580.984375 747 601.808594 C 737.683594 666.246094 718.183594 693.835938 687.660156 719.699219 C 665.507812 738.480469 642.972656 749.207031 616.472656 753.425781 C 622.242188 749.984375 627.160156 745.59375 631.230469 740.25 C 632.5625 738.484375 633.78125 736.644531 634.882812 734.730469 C 635.988281 732.8125 636.96875 730.835938 637.824219 728.800781 C 638.683594 726.761719 639.414062 724.679688 640.011719 722.550781 C 640.613281 720.421875 641.078125 718.265625 641.410156 716.082031 C 641.742188 713.894531 641.9375 711.695312 641.996094 709.488281 C 642.054688 707.277344 641.976562 705.070312 641.761719 702.871094 C 641.546875 700.671875 641.195312 698.492188 640.710938 696.335938 C 640.226562 694.179688 639.609375 692.058594 638.859375 689.980469 C 638.628906 689.394531 638.339844 688.839844 638 688.3125 C 637.660156 687.78125 637.269531 687.292969 636.835938 686.839844 C 636.398438 686.386719 635.925781 685.976562 635.410156 685.617188 C 634.898438 685.253906 634.351562 684.945312 633.777344 684.6875 C 633.207031 684.429688 632.613281 684.230469 632 684.089844 C 631.386719 683.945312 630.769531 683.863281 630.140625 683.839844 C 629.511719 683.816406 628.886719 683.855469 628.265625 683.953125 C 627.644531 684.046875 627.039062 684.203125 626.449219 684.417969 C 625.855469 684.632812 625.292969 684.902344 624.753906 685.222656 C 624.214844 685.546875 623.710938 685.917969 623.242188 686.339844 C 622.773438 686.757812 622.351562 687.21875 621.972656 687.722656 C 621.59375 688.222656 621.265625 688.757812 620.992188 689.320312 C 620.714844 689.886719 620.496094 690.472656 620.332031 691.078125 C 620.171875 691.6875 620.066406 692.304688 620.023438 692.929688 C 619.980469 693.558594 619.996094 694.183594 620.074219 694.808594 C 620.148438 695.429688 620.285156 696.042969 620.480469 696.640625 C 620.703125 697.246094 620.90625 697.859375 621.09375 698.476562 C 621.28125 699.097656 621.449219 699.71875 621.597656 700.347656 C 621.75 700.976562 621.882812 701.609375 621.996094 702.246094 C 622.109375 702.882812 622.203125 703.519531 622.28125 704.164062 C 622.355469 704.804688 622.414062 705.449219 622.453125 706.09375 C 622.492188 706.738281 622.511719 707.382812 622.515625 708.03125 C 622.515625 708.675781 622.5 709.320312 622.460938 709.964844 C 622.425781 710.613281 622.371094 711.253906 622.296875 711.898438 C 622.222656 712.539062 622.132812 713.179688 622.019531 713.816406 C 621.910156 714.453125 621.78125 715.085938 621.632812 715.714844 C 621.484375 716.34375 621.320312 716.96875 621.136719 717.585938 C 620.949219 718.207031 620.75 718.820312 620.527344 719.429688 C 620.308594 720.035156 620.070312 720.636719 619.816406 721.230469 C 619.5625 721.824219 619.289062 722.410156 619 722.988281 C 618.710938 723.566406 618.40625 724.136719 618.085938 724.695312 C 617.761719 725.257812 617.425781 725.808594 617.070312 726.347656 C 616.71875 726.886719 616.347656 727.417969 615.960938 727.9375 C 615.578125 728.457031 615.179688 728.964844 614.761719 729.460938 C 614.347656 729.957031 613.921875 730.4375 613.476562 730.910156 C 613.035156 731.382812 612.578125 731.839844 612.109375 732.28125 C 611.640625 732.726562 611.160156 733.15625 610.664062 733.574219 C 610.171875 733.992188 609.664062 734.390625 609.144531 734.777344 C 608.628906 735.164062 608.101562 735.539062 607.5625 735.894531 C 607.023438 736.25 606.472656 736.589844 605.914062 736.914062 C 605.355469 737.238281 604.785156 737.546875 604.207031 737.835938 C 603.632812 738.128906 603.046875 738.402344 602.453125 738.660156 C 601.859375 738.914062 601.261719 739.15625 600.652344 739.378906 C 600.046875 739.597656 599.433594 739.804688 598.816406 739.988281 C 598.195312 740.175781 597.574219 740.34375 596.945312 740.496094 C 596.316406 740.644531 595.683594 740.777344 595.046875 740.890625 C 594.410156 741.003906 593.769531 741.097656 593.128906 741.175781 C 592.488281 741.25 591.84375 741.308594 591.199219 741.347656 C 591.078125 739.917969 590.863281 738.503906 590.554688 737.101562 C 590.246094 735.703125 589.847656 734.328125 589.355469 732.980469 C 588.863281 731.636719 588.285156 730.328125 587.617188 729.058594 C 586.953125 727.789062 586.203125 726.570312 585.375 725.398438 C 584.546875 724.230469 583.640625 723.121094 582.664062 722.070312 C 581.6875 721.023438 580.644531 720.042969 579.535156 719.132812 C 578.429688 718.222656 577.265625 717.390625 576.046875 716.636719 C 574.824219 715.882812 573.5625 715.210938 572.253906 714.625 C 570.945312 714.039062 569.601562 713.542969 568.226562 713.136719 C 566.851562 712.726562 565.457031 712.414062 564.039062 712.195312 C 562.625 711.972656 561.199219 711.847656 559.765625 711.816406 C 558.332031 711.785156 556.902344 711.851562 555.476562 712.011719 C 554.050781 712.171875 552.644531 712.425781 551.253906 712.773438 C 549.863281 713.125 548.5 713.5625 547.167969 714.09375 C 545.835938 714.621094 544.542969 715.238281 543.292969 715.941406 C 542.042969 716.640625 540.847656 717.425781 539.699219 718.285156 C 534.453125 701.425781 523.53125 677.078125 500.890625 646.472656 L 495.222656 638.863281 C 460.566406 592.34375 413.011719 528.605469 428.019531 446.359375 C 434.808594 409.007812 449.792969 374.691406 470.496094 348.554688 C 476.414062 351.597656 482.492188 354.273438 488.730469 356.585938 C 489.773438 356.953125 490.847656 357.136719 491.953125 357.132812 C 492.523438 357.128906 493.085938 357.074219 493.644531 356.96875 C 494.203125 356.867188 494.75 356.714844 495.28125 356.515625 C 495.816406 356.316406 496.324219 356.074219 496.816406 355.785156 C 497.304688 355.496094 497.765625 355.167969 498.199219 354.800781 C 498.632812 354.429688 499.03125 354.027344 499.390625 353.589844 C 499.753906 353.152344 500.078125 352.683594 500.355469 352.191406 C 500.636719 351.695312 500.875 351.183594 501.066406 350.648438 C 501.257812 350.113281 501.402344 349.5625 501.496094 349.003906 C 501.59375 348.445312 501.640625 347.878906 501.636719 347.3125 C 501.632812 346.742188 501.582031 346.179688 501.480469 345.621094 C 501.382812 345.058594 501.234375 344.515625 501.035156 343.980469 C 500.839844 343.445312 500.597656 342.933594 500.3125 342.441406 C 500.027344 341.953125 499.703125 341.488281 499.335938 341.054688 C 498.96875 340.617188 498.570312 340.21875 498.132812 339.855469 C 497.699219 339.488281 497.234375 339.164062 496.742188 338.882812 C 496.25 338.597656 495.734375 338.359375 495.199219 338.164062 C 488.550781 335.605469 482.109375 332.605469 475.871094 329.164062 C 475.605469 328.851562 475.324219 328.558594 475.027344 328.277344 C 473.660156 327.089844 472.085938 326.339844 470.304688 326.023438 C 447.625 312.46875 416.910156 287.578125 413.304688 249.59375 C 451.714844 254.398438 576.296875 269.933594 599.125 272.78125 C 601.265625 273.039062 603.269531 272.625 605.132812 271.535156 C 607.132812 272.269531 609.15625 272.339844 611.203125 271.746094 C 634.007812 265.03125 657.175781 259.984375 680.707031 256.597656 C 704.234375 253.214844 727.886719 251.535156 751.660156 251.554688 C 1024.75 251.554688 1247.039062 473.71875 1247.039062 746.890625 C 1247.039062 1020.0625 1024.75 1241.972656 751.660156 1241.972656 Z M 751.660156 1241.972656 " fill-opacity="1" fill-rule="nonzero"/><path fill="#701c05" d="M 575.347656 507.125 C 573.042969 506.300781 570.691406 505.652344 568.292969 505.175781 C 565.894531 504.699219 563.472656 504.402344 561.027344 504.285156 C 558.582031 504.167969 556.144531 504.234375 553.710938 504.480469 C 551.277344 504.722656 548.875 505.148438 546.503906 505.75 C 544.132812 506.351562 541.816406 507.121094 539.558594 508.066406 C 537.304688 509.011719 535.128906 510.117188 533.035156 511.386719 C 530.945312 512.652344 528.957031 514.066406 527.074219 515.628906 C 525.191406 517.191406 523.433594 518.882812 521.800781 520.707031 C 520.171875 522.53125 518.683594 524.460938 517.335938 526.507812 C 515.992188 528.550781 514.804688 530.679688 513.777344 532.902344 C 512.75 535.121094 511.890625 537.402344 511.199219 539.75 C 510.507812 542.097656 509.996094 544.484375 509.660156 546.90625 C 509.324219 549.328125 509.167969 551.761719 509.195312 554.210938 C 509.21875 556.65625 509.425781 559.085938 509.8125 561.503906 C 510.195312 563.917969 510.757812 566.292969 511.496094 568.625 C 512.234375 570.957031 513.140625 573.222656 514.214844 575.417969 C 514.617188 576.246094 515.125 577 515.742188 577.679688 C 516.355469 578.363281 517.054688 578.945312 517.832031 579.433594 C 518.609375 579.917969 519.441406 580.289062 520.324219 580.542969 C 521.207031 580.792969 522.109375 580.921875 523.027344 580.921875 C 524.503906 580.898438 525.910156 580.570312 527.242188 579.929688 C 527.820312 579.648438 528.363281 579.308594 528.871094 578.921875 C 529.382812 578.53125 529.851562 578.09375 530.277344 577.613281 C 530.699219 577.132812 531.074219 576.613281 531.398438 576.058594 C 531.722656 575.503906 531.988281 574.921875 532.195312 574.316406 C 532.40625 573.707031 532.554688 573.085938 532.640625 572.449219 C 532.730469 571.8125 532.753906 571.175781 532.714844 570.535156 C 532.675781 569.894531 532.578125 569.261719 532.414062 568.640625 C 532.253906 568.019531 532.03125 567.417969 531.753906 566.839844 C 531.105469 565.511719 530.558594 564.144531 530.113281 562.738281 C 529.664062 561.328125 529.324219 559.894531 529.09375 558.433594 C 528.859375 556.976562 528.734375 555.507812 528.71875 554.03125 C 528.703125 552.554688 528.796875 551.082031 529 549.617188 C 529.203125 548.15625 529.511719 546.714844 529.929688 545.296875 C 530.34375 543.878906 530.863281 542.5 531.484375 541.160156 C 532.105469 539.820312 532.820312 538.53125 533.632812 537.296875 C 534.445312 536.0625 535.34375 534.894531 536.328125 533.792969 C 537.3125 532.691406 538.375 531.667969 539.511719 530.722656 C 540.648438 529.78125 541.847656 528.925781 543.109375 528.160156 C 544.375 527.394531 545.6875 526.722656 547.050781 526.152344 C 548.414062 525.582031 549.808594 525.113281 551.242188 524.75 C 552.675781 524.386719 554.125 524.128906 555.59375 523.980469 C 557.066406 523.832031 558.539062 523.792969 560.015625 523.859375 C 561.492188 523.929688 562.953125 524.109375 564.402344 524.394531 C 565.851562 524.679688 567.273438 525.074219 568.664062 525.570312 C 569.269531 525.785156 569.890625 525.9375 570.527344 526.03125 C 571.160156 526.125 571.800781 526.152344 572.441406 526.121094 C 573.082031 526.085938 573.714844 525.992188 574.339844 525.832031 C 574.960938 525.675781 575.5625 525.460938 576.144531 525.183594 C 576.722656 524.90625 577.269531 524.578125 577.785156 524.191406 C 578.300781 523.808594 578.773438 523.378906 579.203125 522.902344 C 579.632812 522.425781 580.015625 521.910156 580.34375 521.359375 C 580.671875 520.808594 580.945312 520.230469 581.160156 519.625 C 581.375 519.019531 581.527344 518.398438 581.621094 517.761719 C 581.714844 517.125 581.746094 516.488281 581.710938 515.847656 C 581.679688 515.203125 581.585938 514.574219 581.425781 513.949219 C 581.269531 513.328125 581.054688 512.726562 580.777344 512.144531 C 580.5 511.566406 580.171875 511.015625 579.789062 510.503906 C 579.40625 509.988281 578.976562 509.515625 578.496094 509.082031 C 578.019531 508.652344 577.507812 508.273438 576.957031 507.945312 C 576.402344 507.613281 575.824219 507.339844 575.21875 507.125 Z M 575.347656 507.125 " fill-opacity="1" fill-rule="nonzero"/></svg>