<svg width="1600" height="900" viewBox="0 0 1600 900" xmlns="http://www.w3.org/2000/svg">
    <defs/>
    <path fill="#132631" stroke="none" d="M 0 0 L 1600 0 L 1600 900 L 0 900 Z"/>
    <g>
        <path fill="none" stroke="#175779" stroke-width="10" stroke-linecap="round" stroke-linejoin="round" d="M 760 340 L 636 340 C 627 340 620 347 620 356 L 620 524 C 620 533 627 540 636 540 L 760 540"/>
        <path fill="none" stroke="#175779" stroke-width="10" stroke-linecap="round" stroke-linejoin="round" d="M 620 392 L 760 392"/>
        <path fill="#175779" stroke="none" d="M 659 366 C 659 369.86603 655.86597 373 652 373 C 648.13403 373 645 369.86603 645 366 C 645 362.134 648.13403 359 652 359 C 655.86597 359 659 362.134 659 366 Z"/>
        <path fill="#175779" stroke="none" d="M 687 366 C 687 369.86603 683.86597 373 680 373 C 676.13403 373 673 369.86603 673 366 C 673 362.134 676.13403 359 680 359 C 683.86597 359 687 362.134 687 366 Z"/>
        <path fill="#175779" stroke="none" d="M 663 430 L 719 430 C 722.8659 430 726 433.13403 726 437 L 726 439 C 726 442.866 722.8659 446 719 446 L 663 446 C 659.13403 446 656 442.866 656 439 L 656 437 C 656 433.13403 659.13403 430 663 430 Z"/>
        <path fill="#175779" stroke="none" d="M 663 470 L 699 470 C 702.86597 470 706 473.134 706 477 L 706 479 C 706 482.866 702.86597 486 699 486 L 663 486 C 659.13403 486 656 482.866 656 479 L 656 477 C 656 473.134 659.13403 470 663 470 Z"/>
        <g>
            <path fill="none" stroke="#1da8ee" stroke-width="13" stroke-linecap="round" stroke-linejoin="round" d="M 800 466 L 980 466"/>
            <path fill="none" stroke="#1da8ee" stroke-width="13" stroke-linecap="round" stroke-linejoin="round" d="M 932 418 L 980 466 L 932 514"/>
        </g>
    </g>
    <g>
        <path fill="#1da8ee" stroke="none" d="M 69.28 837.68 L 66.32 836.31995 L 78.76 809.36 L 81.72 810.88007 L 69.28 837.68 Z M 89.28 837.68 L 86.31999 836.31995 L 98.759995 809.36 L 101.72 810.88007 L 89.28 837.68 Z M 130.16 820.32 L 126.19999 820.32 L 126.19999 817.5999 L 130.16 817.5999 L 130.16 816.24 Q 130.16 813.76 131.1 812.18005 Q 132.04001 810.6 133.64 809.8401 Q 135.23999 809.08 137.2 809.08 Q 139 809.08 140.54001 809.7 Q 142.08 810.32 143.12 811.6 L 141.52 814.0399 L 141.32 814.36 L 141.04001 814.2 Q 140.95999 813.88 140.84 813.56 Q 140.72 813.24 140.28 812.8 Q 139.6 812.24 138.95999 812.02 Q 138.32 811.8 137.36 811.8 Q 136.23999 811.8 135.36 812.24 Q 134.48 812.68 134 813.64 Q 133.51999 814.6 133.51999 816.2 L 133.51999 817.5999 L 139.36 817.5999 L 139.36 820.32 L 133.51999 820.32 L 133.51999 836 L 130.16 836 L 130.16 820.32 Z M 154 836.3599 Q 151.51999 836.3599 149.58 835.14 Q 147.64 833.92 146.51999 831.75995 Q 145.4 829.6 145.4 826.8 Q 145.4 824 146.51999 821.84 Q 147.64 819.68 149.58 818.44 Q 151.51999 817.2 154 817.2 Q 156.48 817.2 158.42 818.44 Q 160.36 819.68 161.48 821.84 Q 162.6 824 162.6 826.8 Q 162.6 829.6 161.48 831.75995 Q 160.36 833.92 158.42 835.14 Q 156.48 836.3599 154 836.3599 Z M 154 833.56 Q 155.48 833.56 156.6 832.68 Q 157.72 831.7999 158.38 830.28 Q 159.04001 828.76 159.04001 826.76 Q 159.04001 824.76 158.38 823.24 Q 157.72 821.72 156.6 820.8599 Q 155.48 820 154 820 Q 152.56 820 151.42 820.8599 Q 150.28 821.72 149.62 823.24 Q 148.95999 824.76 148.95999 826.76 Q 148.95999 828.76 149.6 830.28 Q 150.23999 831.7999 151.38 832.68 Q 152.51999 833.56 154 833.56 Z M 168.36 817.5999 L 171.92 817.5999 L 171.84 822.88 L 171.4 822.4 Q 171.64 821.1599 172.22 820.2 Q 172.8 819.24 173.62 818.55994 Q 174.44 817.88 175.44 817.51996 Q 176.43999 817.16 177.51999 817.16 Q 179 817.16 180.22 817.66 Q 181.44 818.16 182.44 819.2 L 180.95999 821.96 L 180.8 822.32 L 180.52 822.1599 Q 180.39998 821.84 180.26001 821.54 Q 180.12 821.24 179.60002 820.84 Q 179 820.4 178.44 820.24 Q 177.88 820.07996 177.16 820.07996 Q 176.19998 820.07996 175.23999 820.44 Q 174.28001 820.8 173.5 821.56006 Q 172.72 822.32 172.28 823.5 Q 171.84 824.67993 171.84 826.28 L 171.84 836.04 L 168.36 836.04 L 168.36 817.5999 Z M 195.32 836.44 Q 193.28 836.44 191.58 835.72 Q 189.88002 835 188.63998 833.72 Q 187.4 832.44 186.7 830.7 Q 186 828.96 186 826.88 Q 186 824.84 186.7 823.07996 Q 187.4 821.32 188.63998 820.02 Q 189.88002 818.72 191.58 817.98 Q 193.28 817.24 195.28 817.24 Q 197.64001 817.24 199.46 818.16 Q 201.28 819.08 202.4 820.68 L 200.36 822.8 L 200.12 823.07996 L 199.88 822.84 Q 199.88 822.5201 199.76 822.22 Q 199.64 821.92 199.16002 821.44 Q 198.32 820.68 197.34 820.38 Q 196.36 820.07996 195.08 820.07996 Q 194 820.07996 193 820.54 Q 192 821 191.22 821.86005 Q 190.44 822.7199 189.98001 823.96 Q 189.51999 825.2 189.51999 826.72003 Q 189.51999 828.2399 189.98001 829.45996 Q 190.44 830.68 191.23999 831.58 Q 192.04 832.48 193.14 832.98 Q 194.24 833.48 195.48 833.48 Q 196.36 833.48 197.2 833.24005 Q 198.04001 833 198.79999 832.50006 Q 199.56001 832 200.19998 831.24005 L 202.16 833.48 Q 200.76 835 199 835.72 Q 197.24 836.44 195.32 836.44 L 195.32 836.44 Z M 214.88 836.4 Q 212.87999 836.4 211.22002 835.78 Q 209.56 835.16 208.33998 833.96 Q 207.12 832.75995 206.48 830.96 Q 205.84 829.16 205.84 826.88 Q 205.84 824.56 206.5 822.76 Q 207.16002 820.96 208.32 819.72 Q 209.47998 818.48 211.04 817.81995 Q 212.6 817.16 214.36 817.16 Q 215.92 817.16 217.31999 817.7001 Q 218.72002 818.24 219.73999 819.32 Q 220.76001 820.4 221.36 822.06 Q 221.95999 823.7199 221.95999 825.96 Q 221.95999 826.32 221.94 826.74 Q 221.91998 827.16 221.88002 827.48 L 209.12 827.48 Q 209.20001 829.12 209.7 830.3 Q 210.2 831.48 211 832.22 Q 211.8 832.96 212.82 833.32 Q 213.84 833.68 215 833.68 Q 215.92 833.68 216.74 833.48 Q 217.56 833.28 218.28 832.84 Q 219 832.4 219.60002 831.75995 L 221.44 833.52 Q 220.63998 834.48 219.62001 835.14 Q 218.59999 835.80005 217.42 836.10004 Q 216.24 836.4 214.88 836.4 Z M 209.24 824.88 L 218.56 824.88 Q 218.56 823.67993 218.24 822.76 Q 217.92 821.84 217.36 821.1599 Q 216.8 820.48 215.98 820.14 Q 215.16002 819.8 214.15999 819.8 Q 213.24 819.8 212.44 820.1 Q 211.64 820.4 210.98001 821.04 Q 210.32002 821.68 209.86 822.62 Q 209.4 823.56006 209.24 824.88 Z M 228.36 824.88 L 228.36 821.84 L 239.72 821.84 L 239.72 824.88 L 228.36 824.88 Z M 246.96 836 L 246.96 833.28 L 252.28 833.28 L 252.28 812.0399 L 247.2 812.0399 L 247.2 809.32007 L 255.76 809.32007 L 255.76 833.28 L 261.08002 833.28 L 261.08002 836 L 246.96 836 Z M 274 836.3599 Q 271.52002 836.3599 269.58002 835.14 Q 267.64 833.92 266.52002 831.75995 Q 265.4 829.6 265.4 826.8 Q 265.4 824 266.52002 821.84 Q 267.64 819.68 269.58002 818.44 Q 271.52002 817.2 274 817.2 Q 276.47998 817.2 278.41998 818.44 Q 280.36 819.68 281.47998 821.84 Q 282.6 824 282.6 826.8 Q 282.6 829.6 281.47998 831.75995 Q 280.36 833.92 278.41998 835.14 Q 276.47998 836.3599 274 836.3599 Z M 274 833.56 Q 275.47998 833.56 276.6 832.68 Q 277.72 831.7999 278.38 830.28 Q 279.03998 828.76 279.03998 826.76 Q 279.03998 824.76 278.38 823.24 Q 277.72 821.72 276.6 820.8599 Q 275.47998 820 274 820 Q 272.56 820 271.41998 820.8599 Q 270.28 821.72 269.62 823.24 Q 268.96002 824.76 268.96002 826.76 Q 268.96002 828.76 269.6 830.28 Q 270.24 831.7999 271.38 832.68 Q 272.52002 833.56 274 833.56 Z M 293.76 842.96 Q 291.84 842.96 290.28 842.64 Q 288.72 842.32 287.64 841.72 Q 286.56 841.12 285.97998 840.24 Q 285.4 839.36005 285.4 838.2 Q 285.4 837.12 285.88 836.26 Q 286.36 835.4 287.14 834.80005 Q 287.91998 834.2001 288.88 833.88 L 290.36 834.64 Q 289.68 835.08 289.22 835.50006 Q 288.76 835.92 288.53998 836.46 Q 288.32 837 288.32 837.7601 Q 288.32 838.36005 288.72 838.86 Q 289.12 839.36005 289.84 839.68 Q 290.56 840 291.6 840.17993 Q 292.64 840.36005 293.91998 840.36005 Q 295.64 840.36005 296.76 840.02 Q 297.88 839.68 298.44 839.06006 Q 299 838.44 299 837.68 Q 299 836.88 298.68 836.38 Q 298.36 835.88 297.4 835.64 Q 296.44 835.4 294.6 835.4 Q 293.24 835.4 292.03998 835.27997 Q 290.84 835.16 289.86 834.88 Q 288.88 834.6 288.2 834.18 Q 287.52002 833.75995 287.14 833.12 Q 286.76 832.48 286.76 831.64 Q 286.76 830.52 287.41998 829.56 Q 288.08002 828.6 289.12 827.72003 L 290.72 828.84 Q 290.32 829.28 290.06 829.58 Q 289.8 829.88 289.68 830.16 Q 289.56 830.44 289.56 830.7999 Q 289.56 831.4 290.1 831.75995 Q 290.64 832.12 291.94 832.3 Q 293.24 832.48 295.4 832.48 Q 297.4 832.48 298.68 832.84 Q 299.96002 833.2001 300.68 833.86 Q 301.4 834.52 301.7 835.38 Q 302 836.24 302 837.24 Q 302 838.36005 301.53998 839.38 Q 301.08002 840.4 300.1 841.2 Q 299.12 842 297.56 842.4799 Q 296 842.96 293.76 842.96 Z M 293.08002 829.76 Q 291.12 829.76 289.64 828.92 Q 288.16 828.08 287.34 826.62 Q 286.52002 825.16003 286.52002 823.36 Q 286.52002 821.60004 287.34 820.1599 Q 288.16 818.72 289.64 817.84 Q 291.12 816.9601 293.08002 816.9601 Q 295.08002 816.9601 296.53998 817.84 Q 298 818.72 298.82 820.1599 Q 299.64 821.60004 299.64 823.36 Q 299.64 825.16003 298.82 826.62 Q 298 828.08 296.53998 828.92 Q 295.08002 829.76 293.08002 829.76 Z M 293.08002 827.0801 Q 294.16 827.0801 294.97998 826.58 Q 295.8 826.0801 296.3 825.24 Q 296.8 824.4 296.8 823.36 Q 296.8 822.32 296.3 821.5 Q 295.8 820.68 294.97998 820.18 Q 294.16 819.68 293.08002 819.68 Q 292.03998 819.68 291.2 820.18 Q 290.36 820.68 289.88 821.5201 Q 289.4 822.36 289.4 823.36 Q 289.4 824.36 289.88 825.22 Q 290.36 826.0801 291.2 826.58 Q 292.03998 827.0801 293.08002 827.0801 Z M 298.56 820.72 L 297.24 819.11993 Q 298.4 818.04004 299.72 817.51996 Q 301.03998 817 302.72 817.12 L 303.12 819.76 Q 301.84 819.60004 300.68 819.8 Q 299.52002 820 298.56 820.72 Z M 314 836.3599 Q 311.52002 836.3599 309.58002 835.14 Q 307.64 833.92 306.52002 831.75995 Q 305.4 829.6 305.4 826.8 Q 305.4 824 306.52002 821.84 Q 307.64 819.68 309.58002 818.44 Q 311.52002 817.2 314 817.2 Q 316.47998 817.2 318.41998 818.44 Q 320.36 819.68 321.48 821.84 Q 322.6 824 322.6 826.8 Q 322.6 829.6 321.48 831.75995 Q 320.36 833.92 318.41998 835.14 Q 316.47998 836.3599 314 836.3599 Z M 314 833.56 Q 315.47998 833.56 316.6 832.68 Q 317.72 831.7999 318.38 830.28 Q 319.03998 828.76 319.03998 826.76 Q 319.03998 824.76 318.38 823.24 Q 317.72 821.72 316.6 820.8599 Q 315.47998 820 314 820 Q 312.56 820 311.41998 820.8599 Q 310.28 821.72 309.62 823.24 Q 308.96002 824.76 308.96002 826.76 Q 308.96002 828.76 309.6 830.28 Q 310.24 831.7999 311.38 832.68 Q 312.52002 833.56 314 833.56 Z M 332.72 836.44 Q 331.64 836.44 330.66 836.14 Q 329.68 835.84 328.9 835.18 Q 328.12 834.52 327.54 833.54004 Q 326.96 832.56 326.66 831.18 Q 326.36 829.7999 326.36 828.04 L 326.4 817.5999 L 329.76 817.5999 L 329.76 828.04 Q 329.76 829.6 330.04 830.7 Q 330.32 831.7999 330.84 832.4601 Q 331.36 833.12 332.06 833.4 Q 332.76 833.68 333.52 833.68 Q 334.44 833.68 335.26 833.34 Q 336.08 833 336.7 832.28 Q 337.32 831.56 337.68 830.45996 Q 338.04 829.36 338.04 827.88 L 338.04 817.5999 L 341.44 817.5999 L 341.44 833.12 Q 341.44 833.88 341.5 834.58 Q 341.56 835.27997 341.84 836 L 338.6 836 Q 338.4 835.56 338.32 835.12 Q 338.24 834.68 338.22 834.22 Q 338.2 833.75995 338.2 833.32 Q 337.76 834.08 337.18 834.6599 Q 336.6 835.24 335.88 835.64 Q 335.16 836.04 334.38 836.24 Q 333.6 836.44 332.72 836.44 Z M 355.95996 836.31995 Q 354.24 836.31995 353.10004 835.74 Q 351.96 835.16 351.3 833.94 Q 350.64 832.72 350.42 830.7999 Q 350.2 828.88 350.28 826.16003 L 350.76 813.0399 L 354.32 812.6 L 354.72 812.56 L 354.76 812.8401 Q 354.56 813.12 354.42 813.4001 Q 354.28 813.68 354.2 814.36 L 353.84 819.24 L 353.96 819.8 L 353.67996 826.28 Q 353.56 829.16 353.84 830.74 Q 354.12 832.32 354.82 832.92 Q 355.52 833.52 356.6 833.52 Q 357.92004 833.52 358.94 833 Q 359.96 832.48 361 831.72 L 361.88 834.31995 Q 360.52002 835.31995 359.06 835.82 Q 357.6 836.31995 355.95996 836.31995 L 355.95996 836.31995 Z M 346.64 817.5999 L 360.20004 817.5999 L 360.20004 820.36 L 346.64 820.36 L 346.64 817.5999 Z"/>
    </g>
</svg>
